<svg version="1.1" id="Layer_1" xmlns="http://www.w3.org/2000/svg" xmlns:xlink="http://www.w3.org/1999/xlink" x="0px" y="0px"
	 width="100%" viewBox="0 0 1080 1080" enable-background="new 0 0 1080 1080" xml:space="preserve">
<path fill="#FFFFFF" opacity="1.000000" stroke="none" 
	d="
M0.999997,1001.000000 
	C1.000000,694.303955 1.000000,387.607941 1.339465,80.752777 
	C3.783498,74.621437 5.647194,68.550880 8.037962,62.695538 
	C15.107514,45.381153 26.100067,31.022846 41.262104,19.993893 
	C52.796810,11.603478 65.374641,5.480106 79.542328,2.919077 
	C80.124825,2.813781 80.518402,1.663453 81.000000,1.000000 
	C387.362701,1.000000 693.725403,1.000000 1000.246704,1.343135 
	C1000.889954,2.110321 1001.320557,2.811505 1001.867310,2.918504 
	C1024.396484,7.326909 1042.836060,18.428394 1057.626831,36.024155 
	C1068.397217,48.837254 1075.897827,63.066505 1079.081177,79.541527 
	C1079.194702,80.129333 1080.337158,80.518349 1081.000000,81.000008 
	C1081.000000,387.362701 1081.000000,693.725403 1080.652588,1000.245239 
	C1078.542358,1005.649170 1076.824219,1010.911316 1075.008911,1016.139832 
	C1068.031738,1036.235962 1055.182861,1051.837280 1037.968384,1063.973145 
	C1027.382690,1071.436035 1015.623840,1076.324829 1002.955811,1079.066650 
	C1002.199768,1079.230347 1001.647217,1080.333740 1001.000000,1081.000000 
	C694.637329,1081.000000 388.274597,1081.000000 81.753296,1080.657471 
	C80.944717,1079.881348 80.351448,1079.267334 79.635941,1079.042480 
	C73.099358,1076.989258 66.239525,1075.669678 60.051506,1072.862793 
	C46.391933,1066.666992 34.457718,1058.116699 24.658144,1046.382568 
	C13.799115,1033.379883 6.290141,1019.031616 2.919824,1002.458984 
	C2.799448,1001.867004 1.662930,1001.481628 0.999997,1001.000000 
M346.082214,460.914124 
	C339.477112,465.740784 332.872009,470.567413 326.266907,475.394043 
	C326.553467,475.808350 326.840027,476.222656 327.126587,476.636963 
	C334.472931,471.809601 341.819305,466.982239 349.836578,461.928406 
	C364.154755,455.236603 378.223541,447.932983 392.840942,441.975372 
	C427.403168,427.888885 463.541595,419.816742 500.705109,417.220428 
	C518.583923,415.971405 536.673096,416.073547 554.567932,417.173950 
	C572.909607,418.301819 591.324463,420.380981 609.365845,423.829926 
	C654.588806,432.475189 697.411377,448.345367 738.334290,469.389374 
	C739.664856,470.073639 741.118896,470.517822 743.855164,471.607361 
	C721.145508,424.670258 699.128906,379.165527 677.112305,333.660797 
	C677.555725,333.323669 677.999084,332.986511 678.442505,332.649353 
	C679.958496,333.210205 681.492310,333.727539 682.987915,334.338470 
	C708.258911,344.660156 733.524109,354.995972 758.793091,365.322449 
	C764.740234,367.752808 764.608765,367.679626 767.385681,361.669281 
	C771.155884,353.509216 774.859680,345.294312 779.142822,337.401825 
	C783.868958,328.693115 789.218201,320.322540 794.420044,311.596619 
	C793.100098,311.218323 791.867310,310.773376 790.596619,310.514130 
	C740.742676,300.341156 690.907349,290.074188 640.994690,280.197418 
	C635.973267,279.203766 630.323547,279.882141 625.244629,281.025238 
	C617.056702,282.868073 612.307556,289.866333 613.297241,298.207306 
	C613.835144,302.740387 615.031616,307.445160 617.060730,311.508362 
	C625.841492,329.091736 635.045227,346.463806 644.074585,363.923401 
	C644.861877,365.445831 645.499451,367.045654 646.611145,369.504395 
	C640.897278,368.961212 636.303711,368.301331 631.691406,368.122162 
	C600.669189,366.916840 569.845337,368.557434 539.303223,374.519836 
	C468.426971,388.356293 404.726807,418.159393 346.082214,460.914124 
M580.896667,548.641846 
	C564.919006,538.536743 547.585632,533.063782 528.579834,532.827881 
	C512.495544,532.628357 497.571869,536.171326 484.329956,545.565674 
	C481.563751,547.528137 479.161957,550.004211 475.897400,552.849060 
	C475.897400,517.089600 475.897400,482.248566 475.897400,446.207611 
	C458.803650,448.204803 442.276306,450.135803 425.044128,452.149139 
	C425.044128,457.273590 425.044128,461.743042 425.044159,466.212524 
	C425.044312,522.370667 424.934479,578.529175 425.157501,634.686462 
	C425.192932,643.608643 425.923553,652.687927 427.697113,661.417419 
	C439.031586,717.204529 492.734070,751.985840 549.245178,739.328735 
	C590.893677,730.000488 620.719604,696.596985 625.872742,654.042297 
	C631.126221,610.658875 617.586853,575.030884 580.896667,548.641846 
M705.266357,540.859009 
	C688.963379,548.128906 675.132874,558.554321 664.662415,573.120422 
	C644.909790,600.599365 639.863403,631.023560 647.083862,663.717224 
	C659.350464,719.259521 718.424194,754.068787 772.839783,737.935486 
	C816.148987,725.095032 845.583496,685.759888 846.210571,639.611023 
	C846.604065,610.649536 838.531555,584.470276 818.287048,563.235535 
	C789.430115,532.967285 745.592285,524.445312 705.266357,540.859009 
M394.460510,676.064331 
	C402.049988,655.724304 403.141327,634.839233 398.989746,613.718384 
	C386.016022,547.715393 321.035156,518.387939 265.005768,539.154175 
	C204.187988,561.695068 184.328674,632.685059 210.241470,685.277954 
	C230.727127,726.855713 274.598755,748.885559 319.767883,739.738281 
	C355.756134,732.450256 380.260681,710.640808 394.460510,676.064331 
z"/>
<path fill="#000000" opacity="1.000000" stroke="none" 
	d="
M1001.468628,1081.000000 
	C1001.647217,1080.333740 1002.199768,1079.230347 1002.955811,1079.066650 
	C1015.623840,1076.324829 1027.382690,1071.436035 1037.968384,1063.973145 
	C1055.182861,1051.837280 1068.031738,1036.235962 1075.008911,1016.139832 
	C1076.824219,1010.911316 1078.542358,1005.649170 1080.652588,1000.701172 
	C1081.000000,1027.593506 1081.000000,1054.187134 1081.000000,1081.000000 
	C1054.646118,1081.000000 1028.291748,1081.000000 1001.468628,1081.000000 
z"/>
<path fill="#000000" opacity="1.000000" stroke="none" 
	d="
M0.999997,1001.468628 
	C1.662930,1001.481628 2.799448,1001.867004 2.919824,1002.458984 
	C6.290141,1019.031616 13.799115,1033.379883 24.658144,1046.382568 
	C34.457718,1058.116699 46.391933,1066.666992 60.051506,1072.862793 
	C66.239525,1075.669678 73.099358,1076.989258 79.635941,1079.042480 
	C80.351448,1079.267334 80.944717,1079.881348 81.297348,1080.657471 
	C54.406445,1081.000000 27.812891,1081.000000 1.000000,1081.000000 
	C1.000000,1054.646118 1.000000,1028.291748 0.999997,1001.468628 
z"/>
<path fill="#000000" opacity="1.000000" stroke="none" 
	d="
M1081.000000,80.531349 
	C1080.337158,80.518349 1079.194702,80.129333 1079.081177,79.541527 
	C1075.897827,63.066505 1068.397217,48.837254 1057.626831,36.024155 
	C1042.836060,18.428394 1024.396484,7.326909 1001.867310,2.918504 
	C1001.320557,2.811505 1000.889954,2.110321 1000.702637,1.343135 
	C1027.593506,1.000000 1054.187134,1.000000 1081.000000,1.000000 
	C1081.000000,27.353823 1081.000000,53.708252 1081.000000,80.531349 
z"/>
<path fill="#000000" opacity="1.000000" stroke="none" 
	d="
M80.531342,1.000000 
	C80.518402,1.663453 80.124825,2.813781 79.542328,2.919077 
	C65.374641,5.480106 52.796810,11.603478 41.262104,19.993893 
	C26.100067,31.022846 15.107514,45.381153 8.037962,62.695538 
	C5.647194,68.550880 3.783498,74.621437 1.339465,80.296822 
	C1.000000,53.739319 1.000000,27.478636 1.000000,1.000000 
	C27.353827,1.000000 53.708256,1.000000 80.531342,1.000000 
z"/>
<path fill="#04314B" opacity="1.000000" stroke="none" 
	d="
M581.208923,548.823486 
	C617.586853,575.030884 631.126221,610.658875 625.872742,654.042297 
	C620.719604,696.596985 590.893677,730.000488 549.245178,739.328735 
	C492.734070,751.985840 439.031586,717.204529 427.697113,661.417419 
	C425.923553,652.687927 425.192932,643.608643 425.157501,634.686462 
	C424.934479,578.529175 425.044312,522.370667 425.044159,466.212524 
	C425.044128,461.743042 425.044128,457.273590 425.044128,452.149139 
	C442.276306,450.135803 458.803650,448.204803 475.897400,446.207611 
	C475.897400,482.248566 475.897400,517.089600 475.897400,552.849060 
	C479.161957,550.004211 481.563751,547.528137 484.329956,545.565674 
	C497.571869,536.171326 512.495544,532.628357 528.579834,532.827881 
	C547.585632,533.063782 564.919006,538.536743 581.208923,548.823486 
M535.562744,690.222595 
	C540.792786,688.132690 546.425049,686.710693 551.186523,683.842834 
	C578.750061,667.242004 584.899658,625.351440 563.500427,601.259155 
	C550.889832,587.061523 535.146301,580.884155 516.437500,584.893188 
	C491.513611,590.233826 471.011566,617.474976 477.066101,648.845520 
	C482.008942,674.455872 504.681335,695.043884 535.562744,690.222595 
z"/>
<path fill="#35ABC7" opacity="1.000000" stroke="none" 
	d="
M346.766357,460.795197 
	C404.726807,418.159393 468.426971,388.356293 539.303223,374.519836 
	C569.845337,368.557434 600.669189,366.916840 631.691406,368.122162 
	C636.303711,368.301331 640.897278,368.961212 646.611145,369.504395 
	C645.499451,367.045654 644.861877,365.445831 644.074585,363.923401 
	C635.045227,346.463806 625.841492,329.091736 617.060730,311.508362 
	C615.031616,307.445160 613.835144,302.740387 613.297241,298.207306 
	C612.307556,289.866333 617.056702,282.868073 625.244629,281.025238 
	C630.323547,279.882141 635.973267,279.203766 640.994690,280.197418 
	C690.907349,290.074188 740.742676,300.341156 790.596619,310.514130 
	C791.867310,310.773376 793.100098,311.218323 794.420044,311.596619 
	C789.218201,320.322540 783.868958,328.693115 779.142822,337.401825 
	C774.859680,345.294312 771.155884,353.509216 767.385681,361.669281 
	C764.608765,367.679626 764.740234,367.752808 758.793091,365.322449 
	C733.524109,354.995972 708.258911,344.660156 682.987915,334.338470 
	C681.492310,333.727539 679.958496,333.210205 678.442505,332.649353 
	C677.999084,332.986511 677.555725,333.323669 677.112305,333.660797 
	C699.128906,379.165527 721.145508,424.670258 743.855164,471.607361 
	C741.118896,470.517822 739.664856,470.073639 738.334290,469.389374 
	C697.411377,448.345367 654.588806,432.475189 609.365845,423.829926 
	C591.324463,420.380981 572.909607,418.301819 554.567932,417.173950 
	C536.673096,416.073547 518.583923,415.971405 500.705109,417.220428 
	C463.541595,419.816742 427.403168,427.888885 392.840942,441.975372 
	C378.223541,447.932983 364.154755,455.236603 349.148895,461.958374 
	C347.896240,461.590637 347.331299,461.192932 346.766357,460.795197 
z"/>
<path fill="#04314B" opacity="1.000000" stroke="none" 
	d="
M705.618286,540.715210 
	C745.592285,524.445312 789.430115,532.967285 818.287048,563.235535 
	C838.531555,584.470276 846.604065,610.649536 846.210571,639.611023 
	C845.583496,685.759888 816.148987,725.095032 772.839783,737.935486 
	C718.424194,754.068787 659.350464,719.259521 647.083862,663.717224 
	C639.863403,631.023560 644.909790,600.599365 664.662415,573.120422 
	C675.132874,558.554321 688.963379,548.128906 705.618286,540.715210 
M788.983337,664.451111 
	C795.660217,651.641479 796.897339,637.996582 793.890137,624.177002 
	C789.629089,604.595093 778.127441,590.567871 758.409241,585.522522 
	C738.770386,580.497498 720.931702,584.929565 707.544739,601.068359 
	C696.751892,614.079895 693.757629,629.430664 695.933044,646.070435 
	C698.823181,668.177185 714.694519,685.864685 736.122803,690.370789 
	C756.584229,694.673584 777.447754,684.645264 788.983337,664.451111 
z"/>
<path fill="#04314B" opacity="1.000000" stroke="none" 
	d="
M394.316589,676.423950 
	C380.260681,710.640808 355.756134,732.450256 319.767883,739.738281 
	C274.598755,748.885559 230.727127,726.855713 210.241470,685.277954 
	C184.328674,632.685059 204.187988,561.695068 265.005768,539.154175 
	C321.035156,518.387939 386.016022,547.715393 398.989746,613.718384 
	C403.141327,634.839233 402.049988,655.724304 394.316589,676.423950 
M267.427216,595.906067 
	C251.554001,611.260986 247.720840,630.216064 252.021347,650.986938 
	C259.227570,685.792175 298.674286,702.411560 327.607025,682.977661 
	C344.631561,671.542480 350.985657,654.598389 350.419006,634.770935 
	C349.965729,618.911926 344.281708,605.037964 331.823120,594.883789 
	C312.808594,579.386414 288.269104,579.834473 267.427216,595.906067 
z"/>
<path fill="#81CADC" opacity="1.000000" stroke="none" 
	d="
M346.424286,460.854675 
	C347.331299,461.192932 347.896240,461.590637 348.813416,462.071594 
	C341.819305,466.982239 334.472931,471.809601 327.126587,476.636963 
	C326.840027,476.222656 326.553467,475.808350 326.266907,475.394043 
	C332.872009,470.567413 339.477112,465.740784 346.424286,460.854675 
z"/>
<path fill="#FAFCFC" opacity="1.000000" stroke="none" 
	d="
M535.143982,690.337280 
	C504.681335,695.043884 482.008942,674.455872 477.066101,648.845520 
	C471.011566,617.474976 491.513611,590.233826 516.437500,584.893188 
	C535.146301,580.884155 550.889832,587.061523 563.500427,601.259155 
	C584.899658,625.351440 578.750061,667.242004 551.186523,683.842834 
	C546.425049,686.710693 540.792786,688.132690 535.143982,690.337280 
M509.319672,652.157043 
	C510.450836,653.133484 511.537720,654.167480 512.720276,655.077087 
	C520.907410,661.374634 533.268066,661.683716 541.648865,655.829651 
	C551.127991,649.208435 555.016235,638.428284 551.457458,627.867371 
	C548.093567,617.884949 540.720398,612.433899 530.539978,611.008911 
	C520.501282,609.603699 510.176086,615.073181 505.499237,623.951111 
	C500.269928,633.877686 501.710052,643.130554 509.319672,652.157043 
z"/>
<path fill="#FAFCFC" opacity="1.000000" stroke="none" 
	d="
M788.823181,664.783875 
	C777.447754,684.645264 756.584229,694.673584 736.122803,690.370789 
	C714.694519,685.864685 698.823181,668.177185 695.933044,646.070435 
	C693.757629,629.430664 696.751892,614.079895 707.544739,601.068359 
	C720.931702,584.929565 738.770386,580.497498 758.409241,585.522522 
	C778.127441,590.567871 789.629089,604.595093 793.890137,624.177002 
	C796.897339,637.996582 795.660217,651.641479 788.823181,664.783875 
M737.254639,612.492920 
	C725.819885,618.896118 721.104858,628.806946 723.917847,640.758118 
	C726.312134,650.930176 736.977600,660.665405 751.805664,658.937134 
	C762.743408,657.662354 772.211243,647.757141 773.105896,636.566956 
	C774.564941,618.318420 755.784241,604.692505 737.254639,612.492920 
z"/>
<path fill="#FAFCFC" opacity="1.000000" stroke="none" 
	d="
M267.685791,595.659302 
	C288.269104,579.834473 312.808594,579.386414 331.823120,594.883789 
	C344.281708,605.037964 349.965729,618.911926 350.419006,634.770935 
	C350.985657,654.598389 344.631561,671.542480 327.607025,682.977661 
	C298.674286,702.411560 259.227570,685.792175 252.021347,650.986938 
	C247.720840,630.216064 251.554001,611.260986 267.685791,595.659302 
M282.932159,618.469299 
	C276.994873,625.420471 274.620789,633.216309 277.810120,642.073853 
	C281.108734,651.234863 287.578156,657.205566 297.234894,658.737854 
	C308.262573,660.487549 317.532074,656.769287 323.231293,646.973877 
	C328.310272,638.244446 327.903107,629.105774 322.136871,620.593201 
	C313.424530,607.731262 295.526337,606.553955 282.932159,618.469299 
z"/>
<path fill="#36ACC7" opacity="1.000000" stroke="none" 
	d="
M509.070496,651.898682 
	C501.710052,643.130554 500.269928,633.877686 505.499237,623.951111 
	C510.176086,615.073181 520.501282,609.603699 530.539978,611.008911 
	C540.720398,612.433899 548.093567,617.884949 551.457458,627.867371 
	C555.016235,638.428284 551.127991,649.208435 541.648865,655.829651 
	C533.268066,661.683716 520.907410,661.374634 512.720276,655.077087 
	C511.537720,654.167480 510.450836,653.133484 509.070496,651.898682 
z"/>
<path fill="#36ACC7" opacity="1.000000" stroke="none" 
	d="
M737.605957,612.331421 
	C755.784241,604.692505 774.564941,618.318420 773.105896,636.566956 
	C772.211243,647.757141 762.743408,657.662354 751.805664,658.937134 
	C736.977600,660.665405 726.312134,650.930176 723.917847,640.758118 
	C721.104858,628.806946 725.819885,618.896118 737.605957,612.331421 
z"/>
<path fill="#36ACC7" opacity="1.000000" stroke="none" 
	d="
M283.176758,618.205200 
	C295.526337,606.553955 313.424530,607.731262 322.136871,620.593201 
	C327.903107,629.105774 328.310272,638.244446 323.231293,646.973877 
	C317.532074,656.769287 308.262573,660.487549 297.234894,658.737854 
	C287.578156,657.205566 281.108734,651.234863 277.810120,642.073853 
	C274.620789,633.216309 276.994873,625.420471 283.176758,618.205200 
z"/>
</svg>